<?xml version="1.0" standalone="no"?>
<!DOCTYPE svg PUBLIC "-//W3C//DTD SVG 20010904//EN"
 "http://www.w3.org/TR/2001/REC-SVG-20010904/DTD/svg10.dtd">
<svg version="1.0" xmlns="http://www.w3.org/2000/svg"
 width="300.000000pt" height="300.000000pt" viewBox="0 0 300.000000 300.000000"
 preserveAspectRatio="xMidYMid meet">
<metadata>
Created by potrace 1.10, written by Peter Selinger 2001-2011
</metadata>
<g transform="translate(0.000000,300.000000) scale(0.100000,-0.100000)"
fill="#000000" stroke="none">
<path d="M911 2479 c-15 -14 -20 -27 -15 -38 12 -28 13 -108 1 -147 -10 -33
-9 -38 12 -55 20 -16 42 -18 195 -17 129 0 178 -3 194 -13 12 -8 22 -16 22
-19 0 -3 -41 -25 -91 -50 -70 -34 -109 -62 -169 -120 -64 -63 -160 -186 -160
-207 0 -3 -10 -14 -22 -24 -21 -19 -21 -20 -3 -39 18 -20 19 -20 58 56 72 137
228 279 366 334 42 16 51 17 61 5 10 -12 5 -25 -20 -67 -60 -97 -82 -172 -88
-292 -6 -131 6 -192 59 -302 69 -146 205 -264 360 -315 61 -20 94 -24 189 -24
136 0 224 24 321 87 33 21 67 38 76 38 23 0 11 -49 -38 -149 -91 -184 -297
-334 -511 -371 -51 -9 -68 -16 -68 -28 0 -14 -1 -14 -12 0 -10 11 -38 17 -108
21 -175 10 -320 76 -445 202 -113 114 -179 233 -210 383 -16 74 -19 194 -6
261 l9 43 -35 -5 -34 -6 30 35 c32 35 39 75 21 104 -8 12 -10 11 -11 -7 -2
-23 -4 -39 -9 -48 -1 -3 -3 -11 -4 -17 -1 -7 -7 -12 -13 -11 -21 4 -25 -48 -6
-69 10 -11 17 -22 16 -24 -2 -2 -3 -7 -2 -11 0 -5 0 -48 -1 -98 -2 -149 45
-302 133 -435 144 -217 350 -325 632 -331 86 -2 111 2 235 39 63 19 139 57
204 102 59 40 167 148 186 186 8 16 17 31 20 34 3 3 18 33 33 68 29 68 35 120
15 140 -18 18 -59 14 -93 -8 -16 -12 -46 -28 -65 -36 -19 -9 -43 -20 -52 -25
-10 -5 -26 -9 -36 -9 -10 0 -24 -6 -31 -12 -8 -9 -51 -13 -141 -13 -90 0 -133
4 -142 13 -6 6 -20 12 -31 12 -36 0 -143 60 -205 116 -93 84 -159 186 -186
291 -32 123 -13 311 40 395 13 21 24 42 24 48 0 5 4 10 9 10 11 0 23 36 24 78
1 24 6 32 19 32 11 0 31 12 46 27 15 15 30 27 35 25 4 -1 7 5 7 14 0 8 5 12
10 9 6 -3 10 -15 10 -26 0 -25 16 -41 55 -55 41 -14 133 6 157 35 16 21 26 22
186 22 l169 1 17 29 c19 32 17 139 -3 163 -18 21 -60 25 -113 11 -27 -7 -51
-9 -54 -4 -7 12 -313 16 -356 4 -16 -4 -36 -4 -45 0 -22 8 -193 12 -193 5 0
-4 -43 -6 -95 -5 -79 0 -96 3 -100 16 -13 40 -44 53 -129 56 -72 2 -86 0 -105
-18z m190 -19 c22 -12 26 -59 7 -78 -10 -10 -7 -16 10 -28 27 -18 28 -54 4
-84 -15 -19 -28 -22 -105 -24 -103 -2 -116 3 -93 35 23 33 22 144 0 157 -9 5
-14 14 -10 21 9 14 160 15 187 1z m613 -78 c-4 -9 -8 -23 -10 -30 -5 -26 -27
-42 -65 -48 -22 -4 -39 -11 -39 -16 0 -6 18 -8 46 -3 52 7 74 -5 74 -41 0 -34
-42 -58 -100 -58 -27 0 -55 6 -63 12 -16 14 -19 80 -5 99 6 7 5 20 -2 32 -22
43 37 87 100 75 15 -4 36 -1 47 4 21 12 29 1 17 -26z m-426 12 c17 -12 22 -25
22 -59 0 -26 5 -45 13 -48 8 -3 7 -10 -7 -26 -20 -22 -51 -28 -61 -11 -3 6
-15 5 -30 -2 -35 -16 -75 3 -75 36 0 29 17 44 58 52 22 5 32 12 32 25 0 23
-25 25 -34 4 -7 -19 -46 -20 -46 0 0 18 47 44 80 45 14 0 36 -7 48 -16z m146
4 c3 -7 7 -26 10 -41 9 -37 28 -24 24 16 -3 29 0 32 26 35 39 5 56 -14 30 -33
-12 -8 -31 -42 -44 -76 -36 -100 -92 -137 -135 -89 -15 16 -15 22 -5 35 17 20
37 19 49 -2 5 -10 13 -14 17 -10 10 9 -52 137 -66 137 -17 0 -11 28 8 33 36
10 83 7 86 -5z m386 -46 c0 -64 6 -78 27 -61 15 13 18 65 3 74 -5 3 -10 12
-10 20 0 16 67 32 80 19 5 -5 10 -40 12 -78 l3 -70 -34 -9 c-23 -6 -36 -5 -41
3 -5 8 -14 8 -33 -1 -22 -10 -31 -9 -52 5 -21 14 -25 24 -25 66 0 28 -4 50
-10 50 -20 0 -9 29 13 33 66 13 67 12 67 -51z m272 35 c15 -29 -6 -45 -30 -24
-22 20 -32 22 -32 5 1 -7 15 -22 33 -33 39 -25 45 -47 17 -75 -29 -29 -97 -24
-118 8 -21 32 -2 50 23 22 21 -23 35 -26 35 -7 0 8 -11 19 -25 25 -35 16 -44
60 -16 83 30 24 99 22 113 -4z"/>
<path d="M1015 2427 c-15 -38 9 -66 29 -35 8 14 7 21 -6 35 -16 15 -18 15 -23
0z"/>
<path d="M1012 2313 c2 -17 10 -29 21 -31 13 -3 17 3 17 27 0 25 -4 31 -21 31
-16 0 -20 -5 -17 -27z"/>
<path d="M1612 2353 c3 -30 23 -41 31 -18 9 21 -2 45 -20 45 -10 0 -13 -9 -11
-27z"/>
<path d="M1592 2228 c5 -15 57 -18 61 -3 1 6 -13 11 -32 13 -24 3 -32 0 -29
-10z"/>
<path d="M1763 2048 c-12 -13 -29 -39 -39 -58 -41 -76 -49 -82 -125 -97 -133
-25 -145 -75 -41 -169 l46 -42 -11 -83 c-10 -70 -9 -88 3 -106 17 -27 58 -30
110 -8 19 8 37 14 40 14 2 0 12 7 20 16 17 17 60 20 69 5 10 -16 95 -50 125
-50 33 0 45 13 55 58 3 17 12 32 18 32 7 0 6 4 -3 10 -11 7 -7 10 18 10 17 0
32 -5 32 -11 0 -5 5 -7 10 -4 6 3 10 2 10 -4 0 -6 9 -15 21 -21 28 -16 49 4
49 46 0 25 4 34 16 34 10 0 14 6 11 15 -4 8 -2 17 3 20 6 4 10 15 10 26 0 14
-7 19 -29 19 -17 0 -33 5 -36 11 -4 6 -13 8 -20 5 -20 -7 -39 37 -26 62 16 29
14 71 -4 88 -8 9 -15 12 -15 8 0 -3 -6 -2 -12 4 -7 5 -39 13 -70 17 -63 8 -98
31 -98 64 0 11 -4 21 -10 21 -5 0 -10 7 -10 15 0 8 -4 15 -10 15 -5 0 -10 6
-10 14 0 15 -42 46 -63 46 -7 0 -23 -10 -34 -22z m101 -96 l39 -80 64 -6 c100
-10 123 -17 123 -34 0 -9 -29 -46 -64 -82 l-65 -65 15 -75 c18 -94 18 -109 -1
-116 -8 -4 -51 13 -95 36 l-81 41 -74 -40 c-116 -64 -123 -59 -100 66 l16 86
-65 66 c-36 37 -66 72 -66 79 0 18 34 28 118 37 l73 7 41 82 c60 120 63 120
122 -2z m303 -269 c39 7 42 -1 8 -33 -19 -18 -25 -33 -25 -68 l0 -44 -35 31
c-26 23 -46 31 -72 31 l-37 0 27 28 c21 22 27 38 27 71 l0 43 37 -32 c30 -27
42 -31 70 -27z"/>
<path d="M2080 1678 c0 -14 -7 -31 -15 -38 -21 -18 -19 -30 7 -30 12 0 30 -7
40 -17 17 -15 18 -15 18 8 0 14 7 35 16 47 14 21 14 22 -7 22 -12 0 -31 7 -41
17 -17 15 -18 15 -18 -9z"/>
<path d="M870 1705 c0 -16 -7 -37 -17 -47 -15 -17 -15 -18 10 -18 14 0 35 -10
47 -22 l20 -22 0 30 c0 16 7 40 16 52 15 21 14 22 -12 22 -15 0 -36 7 -46 17
-17 15 -18 15 -18 -12z"/>
<path d="M1570 853 c0 -15 -10 -37 -22 -50 l-21 -23 29 0 c16 0 40 -7 52 -16
21 -15 22 -14 22 12 0 15 7 36 17 46 15 17 15 18 -10 18 -15 0 -36 9 -47 20
-20 20 -20 20 -20 -7z"/>
</g>
</svg>
